<?xml version="1.0" encoding="utf-8"?>
<!-- Generator: Adobe Illustrator 24.0.0, SVG Export Plug-In . SVG Version: 6.00 Build 0)  -->
<svg version="1.1" id="Layer_1" xmlns="http://www.w3.org/2000/svg" xmlns:xlink="http://www.w3.org/1999/xlink" x="0px" y="0px"
	 viewBox="0 0 363.7 108.2" style="enable-background:new 0 0 363.7 108.2;" xml:space="preserve">
<style type="text/css">
	.st0{fill:#231F20;}
</style>
<g>
	<g>
		<path class="st0" d="M5.8,10c-0.1,1.3-0.1,2.8-0.2,4.2c-0.1,1.5-0.1,3-0.1,4.6c0,1.6-0.1,3.2-0.1,4.8c0,1.6,0,3.3,0,5l0,19.7
			l13.9,0c2.5,0,4.8-0.1,6.9-0.2c2.1-0.1,4-0.4,5.7-0.7c1.7-0.3,3.1-0.7,4.4-1.2c1.2-0.5,2.3-1.1,3.1-1.8l-1.6,6.8c-2.1,0-4,0-5.8,0
			c-1.8,0-3.6,0-5.3,0c-1.7,0-3.4,0-5,0s-3.2,0-4.8,0H0c0.1-1.6,0.2-3.3,0.2-5.1c0.1-1.8,0.1-3.7,0.2-5.6c0-1.9,0.1-3.9,0.1-5.9
			c0-2,0-4,0-6c0-1.7,0-3.3,0-5c0-1.7-0.1-3.3-0.1-4.8c0-1.6-0.1-3.1-0.1-4.6C0.1,12.8,0.1,11.4,0,10H5.8z"/>
		<path class="st0" d="M94,33.3l15-25.6c2,3.7,4,7.4,6,11.1c2,3.7,4,7.3,6,11c2,3.6,4.1,7.2,6.3,10.8c2.1,3.6,4.3,7.1,6.6,10.6h-6.4
			c-0.8-1.7-1.8-3.6-2.9-5.7c-1.1-2.1-2.3-4.3-3.6-6.7H94.3c-1.3,2.2-2.5,4.4-3.7,6.5c-1.2,2.1-2.2,4-3.2,5.9h-4.5
			c0.8-1.3,1.7-2.6,2.6-4.1c0.9-1.4,1.8-2.9,2.8-4.4c0.9-1.5,1.9-3.1,2.9-4.6C92.1,36.5,93.1,34.9,94,33.3z M119.4,36.1l-11.2-20.8
			L95.9,36.1H119.4z"/>
		<path class="st0" d="M173.7,10c0.8,1.7,1.8,3.6,2.9,5.7s2.3,4.3,3.6,6.7L193,45.8l13.9-23.5c1.3-2.2,2.5-4.4,3.7-6.5
			c1.2-2.1,2.2-4,3.2-5.9h4.5c-0.8,1.3-1.7,2.6-2.6,4.1c-0.9,1.4-1.8,2.9-2.8,4.4c-0.9,1.5-1.9,3-2.9,4.6c-1,1.6-1.9,3.2-2.9,4.8
			l-15,25.6l-11.9-22.1c-1.1-1.9-2.2-3.8-3.3-5.7c-1.1-1.9-2.2-3.7-3.3-5.6c-1.1-1.8-2.2-3.6-3.3-5.3c-1.1-1.7-2.1-3.3-3.1-4.9
			H173.7z"/>
		<path class="st0" d="M262.8,33.3l15-25.6c2,3.7,4,7.4,6,11.1c2,3.7,4,7.3,6,11c2,3.6,4.1,7.2,6.3,10.8c2.1,3.6,4.3,7.1,6.6,10.6
			h-6.4c-0.8-1.7-1.8-3.6-2.9-5.7c-1.1-2.1-2.3-4.3-3.6-6.7H263c-1.3,2.2-2.5,4.4-3.7,6.5c-1.2,2.1-2.2,4-3.2,5.9h-4.5
			c0.8-1.3,1.7-2.6,2.6-4.1c0.9-1.4,1.8-2.9,2.8-4.4c0.9-1.5,1.9-3.1,2.9-4.6C260.8,36.5,261.8,34.9,262.8,33.3z M288.2,36.1
			L277,15.4l-12.3,20.8H288.2z"/>
		<path class="st0" d="M354.1,51.2c0.2-2,0.3-4.1,0.4-6.3c0.1-2.2,0.2-4.6,0.2-7c0-2.4,0-4.8,0-7.3c0-2.5-0.1-4.9-0.1-7.3
			c-0.1-2.4-0.1-4.7-0.2-7s-0.2-4.4-0.3-6.3h6.1c-0.2,2-0.3,4.1-0.4,6.3c-0.1,2.2-0.2,4.6-0.2,7c-0.1,2.4-0.1,4.8-0.1,7.3
			c0,2.5,0,4.9,0.1,7.3c0.1,2.4,0.1,4.7,0.2,7c0.1,2.2,0.2,4.4,0.4,6.3H354.1z"/>
		<g>
			<circle class="st0" cx="353.4" cy="2.3" r="2.3"/>
			<circle class="st0" cx="361.4" cy="2.3" r="2.3"/>
		</g>
	</g>
	<g>
		<g>
			<path d="M49.4,92.4L49.4,92.4l-1.7,0V81.8h1.7v8.9h10.2v1.7H49.4z"/>
			<path d="M70.2,81.8v10.6h-1.7V81.8H70.2z"/>
			<path d="M85.3,92.4l-6.7-10.6h1.9l5.7,9.1l5.7-9.1h1.9l-6.7,10.6H85.3z"/>
			<path d="M114.1,83.5H104v2.2h9.2v1.7H104v3.3h10.1v1.7l-11.7,0V81.8h11.7V83.5z"/>
			<path d="M198.9,92.4L198.9,92.4l-1.7,0V81.8h1.7v8.9h10.2v1.7H198.9z"/>
			<path d="M229.8,83.5h-10.1v2.2h9.2v1.7h-9.2v3.3h10.1v1.7l-11.7,0V81.8h11.7V83.5z"/>
			<path d="M238.1,87.1c0-3,3.2-5.3,7-5.3c1.7,0,4.1,0.5,5.8,2.2l-1.2,1.2c-0.2-0.2-1.6-1.7-4.5-1.7c-3,0-5.3,1.7-5.3,3.6
				c0,1.9,2.3,3.7,5.3,3.7c0.2,0,2.5,0,4.2-1.4v-0.9h-5v-1.7h6.7V90c-1.3,1.5-3.5,2.4-5.9,2.4C241.3,92.4,238.1,90.1,238.1,87.1z"/>
			<path d="M274.2,92.4h-1.9l-1.4-2.2h-8.7l-1.4,2.2h-1.9l6.7-10.6h1.9L274.2,92.4z M269.8,88.5l-3.3-5.2l-3.3,5.2H269.8z"/>
			<path d="M282.4,87.1c0,1.9,2.3,3.7,5.3,3.7c2.1,0,3.7-0.8,4.6-1.8l1.3,1.1c-1.3,1.5-3.5,2.4-5.9,2.4c-3.5,0-7-2.1-7-5.3
				c0-3,3.2-5.3,7-5.3c1.7,0,4.1,0.5,5.7,2.2l-1.2,1.2c-0.2-0.2-1.6-1.7-4.5-1.7C284.8,83.4,282.4,85.1,282.4,87.1z"/>
			<path d="M307.5,92.4v-5l-6.8-5.6h2.5l5.2,4.2l5.1-4.2h2.6l-6.8,5.6v5H307.5z"/>
		</g>
		<g>
			<path d="M142.3,89.8c-1.1,1.7-2.4,3.3-3.7,5c-0.5,0.6-1,1.3-1.5,2c-1.4,2-4.5,6.5-6.1,8.9c-0.6,0.8-1.6,2.5-2.6,2.5
				c-0.2,0-0.3-0.1-0.3-0.3c0-0.6,0.1-1.2,0.6-1.7c0.4-0.4,0.7-0.8,1-1.2c0.1-0.1,0.2-0.3,0.4-0.5c0.6-0.7,1.3-1.5,1.9-2.3
				c0.1-0.1,0.5-0.7,1-1.3c0.3-0.4,0.6-0.8,0.9-1.3c1.2-1.5,2.6-3.3,3.4-4.4c1.5-1.9,3.4-4.3,3.3-4.9c0-0.1-0.1-0.2-0.2-0.2
				c-0.1,0-0.8,0.3-1.4,0.6c-0.1,0.1-0.2,0.1-0.3,0.2c-0.2,0.1-0.5,0.3-0.7,0.4c-0.7,0.4-1.2,0.6-2.1,0.8c-0.2,0-0.9,0.4-1.1-1
				c0-0.3,0.1-0.6,0.3-1.1c0-0.1-0.1,0.4-0.1,0.2c0.1-0.3,0.2-0.6,0.2-0.9c0-0.2-0.1-0.3-0.3-0.3c-0.7,0.1-2.8,1.5-3.7,2.2
				c-0.5,0.4-0.9,0.6-1.2,0.6c-0.1,0-0.2,0-0.3-0.1c0-0.1,0.2-0.4,0.3-0.5c0.7-0.5,1.2-0.9,2.1-1.6c0.6-0.4,1.1-0.8,1.7-1.2
				c0.9-0.6,1.8-1.4,2.9-1.6c0.1,0,0.2,0,0.2,0.1l0.1,0.4c0,0-0.1,0.4-0.1,0.4l0,0c-0.2,0.5-0.4,1.8-0.3,2.7c0,0.3,0.1,0.5,0.5,0.4
				c0.9-0.1,1.8-0.7,2.7-1.2c0.8-0.5,2.3-1.4,2.7-1.4c0.4,0,0.7,0,0.7,0.3c0,0.3-0.1,0.6-0.2,0.8L142.3,89.8z"/>
			<path d="M153,86c0,0-0.1,0.2-0.1,0.2c0,0.1,0,0.2,0,0.2l-0.1,0.2c-0.7,2.4-2.5,3.3-4.2,4.2c-0.4,0.2-0.8,0.4-1.1,0.6
				c-0.4,0.2-1,0.4-1.4,0.4c-0.5,0-1-0.2-0.9-0.7c0-0.3,0.2-0.8,0.3-1.1c0.7-1.5,1.7-2.8,2.8-3.9c0.1-0.1,0.2-0.2,0.3-0.3
				c0.9-0.9,2.6-2.6,3.6-2.4c0.6,0.1,0.8,0.7,0.9,1.4l0,0.1c0,0.1,0.1,0.2,0.1,0.2c0,0.1-0.1,0.3-0.1,0.4L153,86z M151,86.6
				c-0.3-0.1-0.1-0.4-0.2-0.7c0-0.1-0.1-0.2-0.1-0.2l-0.1,0c0,0-0.1,0-0.1,0c0-0.1-0.1-0.1-0.2-0.1c-1.6,0.9-3.5,3.1-3.6,4.1
				c0,0.4,0.1,0.7,0.6,0.7c1.5-0.1,4.1-2.4,4.4-3.7c-0.1,0-0.2,0-0.2,0c-0.1,0-0.2,0-0.3-0.1L151,86.6z"/>
			<path d="M168.3,87.1c-1.3,0.9-2.4,1.7-3.7,1.8c-0.6,0.1-1.2-0.2-1.3-0.8c-0.1-0.6,0-1.2,0.1-1.7c0-0.1,0-0.2,0-0.3
				c0,0-0.1,0.1-0.2,0.1c-0.9,0.9-2.5,2.1-3.7,2.7c-0.2,0.1-0.7,0.3-0.9,0.4c-0.8,0.1-1.6-0.1-1.7-0.9c-0.1-0.8-0.3-1.2,0.2-2.1
				c0,0,0.2-0.4,0-0.3c-0.1,0-0.1,0-0.2,0.1c-0.6,0.4-0.9,0.6-1.9,1.3c-1.2,0.9-2.3,1.6-2.6,1.6c-0.2,0-0.4-0.1-0.4-0.3
				c0-0.2,0.2-0.4,0.5-0.6l0.2-0.1c2.4-1.9,3.9-2.7,6.2-4.9c0.2-0.1,0.3-0.2,0.5-0.2c0.2,0,0.6,0.2,0.6,0.4c0,0.3-0.1,0.7-0.4,1.3
				c-0.6,0.9-1.4,1.5-1.3,2.3c0.1,0.5,0.5,0.9,0.9,0.9c0.3,0,0.7-0.2,1-0.3l0.3-0.1c1.3-0.7,2.2-1.4,3.2-2.7l0.2-0.2
				c0.2-0.3,0.5-0.4,0.9-0.5c0.1,0,0.4,0.1,0.4,0.3c0,0.1,0.3,0.4,0.2,0.6c-0.2,0.2-0.2,0.4-0.3,0.6c0,0,0,0.1-0.1,0.2
				c-0.2,0.7-0.4,0.6-0.3,1.3c0,0.3,0.3,0.7,0.8,0.7c1.2-0.2,2-0.8,2.7-1.2c0.4-0.3,1.3-0.9,1.8-1c0.1,0,0.2,0,0.2,0.2
				C170,86,169.1,86.6,168.3,87.1z"/>
			<path d="M182.4,83.7c-0.4,1-5.9,4.2-6.7,4.4c-0.3,0.2-0.6,0.4-0.9,0.4c-0.5,0.1-1-0.5-1.1-1c-0.1-0.5,0.2-1.1,0.5-1.4l0,0
				c0-0.1,0.2-0.3,0.3-0.4l0.1-0.1c0.3-0.3,0.7-1.3,0.7-1.6c0-0.2-0.2-0.4-0.5-0.5l-0.3-0.2l-0.1-0.4c-0.1-0.2-0.1-0.4-0.4-0.4
				c-0.1,0-0.6,0.4-1.2,1c-0.7,0.7-1.8,1.7-3.1,2.6c-0.5,0.3-0.9,0.6-1.1,0.7c-0.1,0-0.3,0-0.3-0.2c-0.1-0.5,0.3-0.7,0.6-1
				c0,0,0.1,0,0.1-0.1c1.1-0.9,2.3-1.9,3.4-3.1c0,0,0.1-0.1,0.1-0.2c0.1-0.1,0.1-0.2,0.1-0.3l0.2-0.2c0,0,0.1-0.1,0.2-0.1
				c0,0,0.1,0,0.1-0.1c0,0,0.1-0.1,0.1-0.2c0.1-0.1,0.1-0.1,0.2-0.2c0,0,0.2-0.1,0.3-0.2c0.1-0.1,0.2-0.2,0.3-0.3
				c0,0,0.1-0.1,0.4-0.6c0.1-0.1,0.1-0.1,0.2-0.3c0.3-0.4,0.6-0.7,0.8-0.7c0.4-0.1,1,0.6,1,1.1c0,0.3-0.1,0.5-0.4,0.6
				c0,0-0.1,0.1-0.2,0.1c-0.4,0.2-0.7,0.5-0.7,0.9c0,0.3,0.4,0.9,0.6,1.3l0.2,0.2c0,0.1,0.1,0.1,0.2,0.3c0.1,0.2,0.1,0.3,0.2,0.5
				c0,0.2-0.2,0.9-0.4,1.4c0,0,0,0.1,0,0.1c0,0-0.1,0.1-0.1,0.1c-0.1,0.1-0.1,0.3-0.1,0.3s-0.1,0.2-0.1,0.1c0,0,0,0.1-0.1,0.2l0.1,0
				c0,0.1,0,0.3,0,0.3c0,0,0.1,0.1,0.2,0.1c0.1,0,0.2,0,0.3-0.1c0.1,0,0.2-0.1,0.3-0.1c0.2,0,1.3-0.6,3.4-1.9c0.4-0.3,1-0.7,1.7-1.2
				C182.1,83.1,182.6,83.2,182.4,83.7L182.4,83.7z"/>
		</g>
	</g>
</g>
</svg>
